<?xml version="1.0" standalone="no"?>
<!DOCTYPE svg PUBLIC "-//W3C//DTD SVG 20010904//EN"
 "http://www.w3.org/TR/2001/REC-SVG-20010904/DTD/svg10.dtd">
<svg version="1.0" xmlns="http://www.w3.org/2000/svg"
 width="1000.000000pt" height="1000.000000pt" viewBox="0 0 1000.000000 1000.000000"
 preserveAspectRatio="xMidYMid meet">
<metadata>
Created by potrace 1.14, written by Peter Selinger 2001-2017
</metadata>
<g transform="translate(0.000000,1000.000000) scale(0.100000,-0.100000)"
fill="#000000" stroke="none">
<path d="M3631 6417 c-344 -914 -659 -1754 -700 -1866 l-76 -203 -92 6 c-72 4
-123 15 -231 51 l-139 45 -6 93 c-7 118 -27 175 -87 240 -31 34 -52 69 -60 97
-17 65 -53 133 -104 195 -79 98 -72 181 34 406 74 155 94 232 87 317 -16 163
-112 261 -267 270 -260 15 -510 -247 -510 -535 0 -82 14 -158 41 -221 l19 -44
-27 6 c-78 17 -219 31 -308 30 -169 -2 -350 -65 -420 -146 -49 -58 -61 -108
-40 -164 9 -23 23 -48 31 -54 12 -11 10 -17 -15 -45 -85 -97 -61 -247 57 -363
l53 -52 3 -73 c6 -183 171 -316 416 -337 53 -5 121 -18 155 -30 92 -33 219
-38 324 -11 83 21 85 21 105 2 38 -34 69 -44 137 -44 77 0 154 31 203 82 l28
29 71 -38 c87 -46 183 -77 269 -85 34 -3 77 -8 94 -11 l31 -4 -382 -1018 -382
-1017 1020 -3 c561 -1 1022 -1 1024 1 1 2 64 210 138 463 75 252 140 474 146
492 l11 32 1010 -2 1010 -3 129 -425 c71 -234 139 -455 150 -492 l20 -68 1048
0 1048 0 -115 305 c-63 168 -113 307 -111 309 2 2 39 -4 81 -12 214 -44 425
68 582 310 180 276 203 481 71 614 -58 59 -117 80 -192 70 -45 -6 -49 -4 -65
23 -9 17 -35 40 -59 51 -55 29 -140 25 -186 -8 -48 -34 -49 -11 -5 81 63 128
78 240 46 348 -29 100 -78 141 -243 207 -118 47 -357 106 -560 139 -94 15
-172 32 -174 38 -2 5 -149 395 -325 865 -177 470 -487 1296 -690 1835 l-368
980 -1064 2 -1065 3 -624 -1663z m2747 1291 c174 -465 1774 -4725 1993 -5306
71 -188 129 -345 129 -347 0 -3 -404 -5 -898 -5 l-899 0 -117 387 c-65 214
-133 439 -152 501 l-35 112 -1109 0 -1108 0 -11 -32 c-13 -42 -219 -740 -257
-870 l-28 -98 -873 0 c-480 0 -873 4 -873 8 0 4 36 104 81 222 44 118 260 692
479 1275 340 905 686 1825 1491 3967 82 218 152 404 155 413 6 13 110 15 973
15 l968 0 91 -242z m-4310 -1794 c40 -30 62 -81 62 -145 0 -65 -19 -125 -88
-269 -79 -166 -94 -235 -78 -367 8 -71 9 -73 61 -117 132 -113 188 -299 134
-446 -33 -90 -33 -93 -18 -88 14 5 80 124 93 168 l7 25 17 -30 c13 -24 17 -53
16 -140 -1 -92 -5 -122 -27 -184 -58 -161 -132 -231 -242 -231 -34 0 -64 2
-67 5 -3 3 18 29 46 58 71 73 140 207 107 207 -5 0 -23 -18 -41 -39 -57 -73
-181 -150 -284 -177 -52 -14 -182 -19 -210 -8 -13 5 -9 14 19 47 38 44 65 118
65 176 0 48 -18 112 -38 134 -14 16 -12 20 20 52 27 27 66 87 74 112 0 2 24
-20 52 -47 79 -76 120 -64 67 20 -45 72 -67 141 -72 230 -5 77 -2 95 24 172
34 99 37 88 -46 189 -24 30 -57 81 -72 114 -108 228 4 504 239 592 52 19 145
12 180 -13z m-708 -729 c131 -25 176 -42 209 -80 43 -50 42 -87 -6 -135 -58
-57 -135 -82 -275 -88 -104 -4 -126 -2 -207 22 -149 42 -221 87 -221 135 0 32
7 41 46 68 74 52 248 103 329 96 28 -2 84 -10 125 -18z m-457 -339 c12 -8 65
-30 117 -47 91 -32 102 -33 245 -33 139 -1 155 1 225 27 101 37 102 37 113 -1
15 -48 -7 -106 -60 -163 -154 -164 -474 -171 -642 -14 -81 76 -101 147 -61
213 22 36 31 38 63 18z m622 -426 c45 -87 -19 -199 -131 -230 -71 -20 -180 -8
-255 27 -96 45 -148 104 -163 182 -6 31 -4 33 17 27 121 -35 146 -38 252 -33
85 3 125 10 175 30 84 32 87 32 105 -3z m6594 -525 c74 -19 136 -37 138 -39
12 -12 -25 -92 -48 -102 -13 -7 -57 -28 -97 -47 l-73 -36 -10 27 c-38 98 -89
235 -89 240 0 2 10 1 23 -2 12 -4 82 -22 156 -41z m317 -265 c58 -25 109 -74
138 -132 38 -75 35 -81 -26 -53 -76 34 -190 59 -232 51 -52 -10 -44 -23 22
-41 108 -30 140 -46 208 -103 78 -66 136 -146 166 -229 16 -46 22 -88 24 -203
3 -79 9 -149 14 -154 15 -15 48 21 68 78 14 37 21 89 25 186 8 204 47 304 137
350 51 26 79 25 121 -3 86 -57 89 -164 10 -333 -81 -174 -206 -321 -321 -377
-56 -28 -75 -32 -145 -32 -70 0 -89 4 -145 32 -36 18 -77 45 -92 60 -20 20
-65 127 -157 373 -71 190 -141 375 -155 412 l-25 67 64 32 c102 50 213 57 301
19z m404 -150 c11 -11 20 -24 20 -29 0 -4 -16 -38 -35 -74 -18 -37 -37 -82
-41 -102 -7 -38 -19 -45 -29 -16 -3 10 -14 26 -25 36 -29 26 -28 122 1 159 37
47 78 57 109 26z"/>
<path d="M5221 6443 c-40 -131 -111 -362 -157 -513 -45 -151 -111 -369 -146
-483 l-63 -208 -80 -2 c-65 -2 -91 -8 -137 -30 -105 -51 -180 -160 -220 -320
-17 -68 -20 -101 -15 -202 6 -148 38 -266 102 -377 25 -43 45 -80 45 -82 0
-12 106 -104 153 -133 29 -18 82 -40 120 -49 62 -16 72 -16 132 -1 75 19 137
58 190 119 l36 43 127 5 127 5 40 -50 c166 -204 439 -162 610 95 84 127 123
251 131 420 13 248 -80 451 -241 530 -42 21 -64 25 -141 25 l-91 0 -218 710
c-120 390 -221 716 -225 723 -3 7 -39 -93 -79 -225z m239 -749 c88 -286 160
-522 160 -527 0 -4 -24 -32 -54 -62 -70 -70 -127 -166 -167 -285 -31 -90 -33
-103 -33 -245 -1 -82 3 -167 7 -187 l8 -38 -72 0 c-69 0 -71 1 -64 23 14 46
18 264 6 333 -17 94 -68 227 -116 298 -21 33 -66 85 -98 117 l-59 57 158 521
c87 286 159 519 161 517 2 -2 76 -237 163 -522z m-558 -585 c96 -49 205 -207
244 -354 20 -79 29 -246 16 -315 -20 -104 -51 -170 -111 -231 -62 -63 -114
-85 -187 -76 -144 16 -289 182 -345 394 -27 101 -29 262 -6 350 60 226 217
320 389 232z m1039 10 c190 -95 240 -457 103 -737 -43 -88 -134 -188 -200
-221 -167 -84 -327 20 -380 246 -22 94 -14 272 16 368 87 278 290 430 461 344z"/>
<path d="M4798 4860 c-30 -27 -31 -31 -15 -41 45 -27 62 -126 30 -180 -9 -16
-32 -36 -51 -45 -36 -17 -36 -26 -5 -89 35 -69 88 -105 154 -105 84 0 137 94
125 220 -19 184 -72 270 -168 270 -28 0 -46 -8 -70 -30z"/>
<path d="M5825 4879 c-11 -7 -21 -13 -23 -14 -1 -1 7 -23 18 -48 39 -88 -8
-178 -100 -193 l-42 -7 7 -51 c14 -105 70 -169 149 -169 82 0 135 66 156 195
21 133 9 216 -39 262 -33 31 -94 43 -126 25z"/>
<path d="M5716 3864 c-22 -21 -20 -29 9 -52 l25 -20 -71 -27 c-151 -58 -243
-76 -418 -82 -231 -8 -401 21 -543 93 -53 27 -58 28 -58 15 0 -14 133 -94 220
-134 160 -73 366 -106 551 -87 118 12 253 46 329 85 l49 25 11 -35 c14 -43 51
-56 80 -30 53 48 -4 170 -109 237 -52 33 -55 33 -75 12z"/>
<path d="M5207 3423 c-40 -40 111 -131 244 -148 64 -8 99 5 99 35 0 26 -7 29
-108 50 -48 10 -113 29 -146 44 -61 27 -78 31 -89 19z"/>
<path d="M160 2312 c0 -5 7 -17 15 -28 13 -17 14 -17 15 -1 0 14 9 17 50 17
28 0 50 5 50 10 0 6 -28 10 -65 10 -36 0 -65 -4 -65 -8z"/>
<path d="M235 2250 c-4 -6 -16 -8 -26 -5 -35 11 -60 -22 -40 -53 10 -17 91
-25 108 -11 18 15 16 44 -3 63 -18 19 -30 20 -39 6z m-27 -37 c-4 -22 -22 -20
-26 1 -2 10 3 16 13 16 10 0 15 -7 13 -17z m60 0 c-2 -10 -10 -18 -18 -18 -8
0 -16 8 -18 18 -2 12 3 17 18 17 15 0 20 -5 18 -17z"/>
<path d="M160 2132 c0 -5 7 -17 15 -28 13 -17 14 -17 15 -1 0 14 9 17 50 17
28 0 50 5 50 10 0 6 -28 10 -65 10 -36 0 -65 -4 -65 -8z"/>
<path d="M236 2073 c-3 -4 -21 -7 -38 -7 -45 -1 -45 -20 -1 -50 47 -33 63 -33
63 -1 0 16 6 25 15 25 8 0 15 7 15 16 0 8 -4 13 -9 9 -5 -3 -12 -1 -16 5 -7
12 -19 13 -29 3z m4 -46 c0 -14 -4 -16 -19 -7 -32 16 -35 30 -7 28 18 -2 26
-8 26 -21z"/>
<path d="M177 1952 c-22 -24 -21 -35 1 -55 36 -33 112 -13 112 28 0 20 -40 45
-71 45 -14 0 -33 -8 -42 -18z m77 -8 c24 -9 19 -33 -8 -40 -31 -7 -66 3 -66
21 0 21 41 32 74 19z"/>
<path d="M160 1825 c0 -25 5 -45 10 -45 6 0 10 14 10 30 0 17 2 30 4 30 2 0
25 -9 51 -20 53 -23 55 -23 55 -11 0 7 -108 61 -124 61 -3 0 -6 -20 -6 -45z"/>
<path d="M176 1754 c-19 -18 -20 -28 -6 -55 19 -35 62 -20 72 26 4 18 6 17 18
-7 13 -28 30 -37 30 -17 0 18 -57 69 -79 69 -11 0 -27 -7 -35 -16z m42 -26
c-2 -12 -9 -23 -15 -26 -19 -6 -29 28 -12 39 23 14 31 10 27 -13z"/>
<path d="M177 1642 c-22 -24 -21 -35 1 -55 25 -22 75 -21 95 1 23 25 21 38 -5
56 -30 21 -71 20 -91 -2z m77 -8 c24 -9 19 -33 -8 -40 -31 -7 -66 3 -66 21 0
21 41 32 74 19z"/>
<path d="M270 1523 l0 -27 -20 22 c-29 31 -78 30 -86 -2 -6 -25 1 -46 15 -46
4 0 7 10 7 23 -1 32 34 34 64 2 32 -34 40 -32 40 15 0 22 -4 40 -10 40 -5 0
-10 -12 -10 -27z"/>
<path d="M196 1451 c-4 -6 -12 -9 -17 -6 -5 4 -9 2 -9 -4 0 -5 6 -12 13 -15 9
-5 9 -7 0 -12 -10 -4 -9 -9 2 -20 8 -9 20 -12 26 -8 6 3 14 1 18 -5 5 -8 15
-9 31 -3 19 7 21 10 7 15 -23 9 -22 28 1 20 12 -4 11 0 -7 17 -17 17 -25 20
-31 10 -6 -9 -10 -8 -17 5 -7 12 -12 14 -17 6z m39 -41 c-3 -5 -10 -10 -16
-10 -5 0 -9 5 -9 10 0 6 7 10 16 10 8 0 12 -4 9 -10z"/>
<path d="M140 1280 c0 -6 38 -10 95 -10 57 0 95 4 95 10 0 6 -38 10 -95 10
-57 0 -95 -4 -95 -10z"/>
<path d="M261 1189 c-22 -18 -25 -19 -42 -3 -11 10 -22 14 -27 10 -4 -4 4 -16
17 -27 l23 -19 -46 0 c-34 0 -46 -4 -46 -15 0 -12 15 -15 75 -15 60 0 75 3 75
15 0 9 -9 15 -22 15 l-23 0 24 19 c13 10 22 23 20 29 -2 6 -14 3 -28 -9z"/>
<path d="M190 1081 c0 -27 27 -51 55 -51 24 0 45 25 45 54 0 25 -18 19 -22 -6
-2 -17 -10 -23 -28 -23 -18 0 -26 6 -28 23 -4 27 -22 30 -22 3z"/>
<path d="M206 994 c-19 -18 -20 -28 -6 -55 21 -39 90 -16 90 30 0 16 -30 41
-50 41 -10 0 -26 -7 -34 -16z m59 -29 c0 -22 -31 -33 -47 -17 -17 17 -1 44 24
40 15 -2 23 -10 23 -23z"/>
<path d="M190 900 c0 -5 -7 -10 -15 -10 -8 0 -15 -4 -15 -10 0 -5 6 -10 14
-10 8 0 17 -6 20 -12 5 -10 7 -10 12 0 3 6 21 12 40 12 34 0 56 22 39 38 -4 4
-10 1 -12 -5 -5 -15 -63 -18 -63 -3 0 6 -4 10 -10 10 -5 0 -10 -4 -10 -10z"/>
<path d="M212 810 c-19 -34 -35 -34 -40 -2 -5 30 -22 28 -22 -2 0 -50 54 -61
77 -16 17 34 38 32 38 -3 -1 -32 18 -31 23 2 8 53 -49 69 -76 21z"/>
<path d="M200 675 c-22 -26 3 -65 40 -65 35 0 58 36 45 67 -7 16 -9 15 -13 -7
-6 -40 -22 -48 -22 -12 0 25 -4 32 -19 32 -10 0 -24 -7 -31 -15z m30 -26 c0
-11 -4 -17 -10 -14 -5 3 -10 13 -10 21 0 8 5 14 10 14 6 0 10 -9 10 -21z"/>
<path d="M197 561 c-8 -22 -18 -31 -34 -31 -14 0 -23 -6 -23 -15 0 -23 138
-22 147 2 10 26 -19 68 -50 71 -24 3 -30 -2 -40 -27z m57 3 c28 -11 18 -34
-14 -34 -18 0 -30 5 -30 13 0 25 15 32 44 21z"/>
<path d="M206 464 c-19 -18 -20 -28 -6 -55 21 -39 90 -16 90 30 0 16 -30 41
-50 41 -10 0 -26 -7 -34 -16z m59 -29 c0 -22 -31 -33 -47 -17 -17 17 -1 44 24
40 15 -2 23 -10 23 -23z"/>
<path d="M140 350 c0 -5 11 -10 25 -10 15 0 25 -6 25 -14 0 -45 73 -62 92 -22
20 45 6 56 -72 56 -40 0 -70 -4 -70 -10z m128 -27 c-2 -12 -12 -18 -28 -18
-16 0 -26 6 -28 18 -3 13 3 17 28 17 25 0 31 -4 28 -17z"/>
<path d="M220 246 c-36 -13 -66 -29 -68 -37 -1 -9 20 -21 68 -35 38 -12 70
-17 70 -12 0 6 -9 12 -20 15 -14 4 -20 14 -20 34 0 22 5 29 20 29 11 0 20 7
20 15 0 8 -1 15 -2 14 -2 0 -32 -11 -68 -23z m8 -51 c-7 -7 -48 7 -48 15 0 15
45 16 48 2 2 -8 2 -15 0 -17z"/>
</g>
</svg>
