<?xml version="1.0" standalone="no"?>
<!DOCTYPE svg PUBLIC "-//W3C//DTD SVG 20010904//EN"
 "http://www.w3.org/TR/2001/REC-SVG-20010904/DTD/svg10.dtd">
<svg version="1.0" xmlns="http://www.w3.org/2000/svg"
 width="1024.000000pt" height="1024.000000pt" viewBox="0 0 1024.000000 1024.000000"
 preserveAspectRatio="xMidYMid meet">
<metadata>
Created by potrace 1.14, written by Peter Selinger 2001-2017
</metadata>
<g transform="translate(0.000000,1024.000000) scale(0.100000,-0.100000)"
fill="#000000" stroke="none">
<path d="M4293 8959 c-13 -5 -23 -5 -23 -1 0 4 -4 2 -8 -3 -7 -10 -200 -180
-251 -221 -13 -10 -33 -28 -45 -40 -11 -11 -70 -63 -131 -115 -60 -52 -118
-103 -127 -113 -10 -10 -18 -16 -18 -13 0 3 -15 -9 -33 -26 -18 -18 -59 -54
-91 -82 -33 -27 -64 -54 -70 -60 -6 -5 -45 -39 -86 -74 -41 -35 -84 -74 -95
-85 -11 -12 -41 -37 -65 -57 -25 -21 -61 -51 -80 -68 -19 -16 -52 -45 -74 -63
-21 -18 -46 -40 -55 -48 -17 -16 -135 -118 -235 -205 -32 -27 -68 -59 -80 -70
-13 -11 -49 -42 -81 -70 -32 -27 -73 -63 -91 -80 -18 -16 -42 -37 -52 -45 -25
-19 -127 -108 -162 -140 -15 -14 -48 -43 -74 -64 -26 -21 -60 -51 -75 -65 -30
-28 -45 -41 -156 -136 -38 -33 -75 -64 -81 -70 -6 -5 -37 -32 -69 -60 -32 -27
-63 -55 -69 -60 -6 -6 -32 -28 -57 -50 -25 -22 -47 -44 -48 -50 -1 -7 286 -10
841 -11 464 -1 846 -2 849 -3 4 -1 4 -16 0 -33 -11 -52 1 -265 20 -360 6 -29
12 -62 14 -73 2 -11 8 -35 13 -52 6 -18 8 -33 5 -33 -3 0 -1 -6 4 -12 6 -7 13
-26 17 -41 7 -31 85 -209 95 -217 3 -3 14 -21 24 -40 74 -147 316 -388 492
-492 127 -75 294 -148 337 -148 9 0 19 -4 22 -9 3 -5 20 -11 38 -14 18 -3 51
-8 73 -12 22 -3 47 -8 55 -11 54 -19 382 -26 509 -12 57 7 63 6 58 -10 -3 -9
-15 -44 -27 -77 -11 -33 -23 -69 -25 -80 -2 -11 -4 -20 -5 -20 -8 0 -14 -71
-14 -170 0 -97 4 -135 23 -195 38 -127 128 -297 208 -393 27 -34 29 -49 6 -46
-10 1 -20 1 -23 0 -3 -1 -32 -4 -65 -6 -76 -5 -170 -13 -215 -19 -19 -3 -62
-7 -95 -11 -33 -3 -67 -8 -75 -10 -8 -3 -37 -7 -65 -10 -27 -4 -63 -8 -80 -11
-16 -2 -42 -6 -56 -8 -14 -1 -31 -6 -38 -10 -7 -5 -15 -6 -17 -3 -3 3 -20 1
-37 -4 -18 -4 -45 -11 -62 -13 -16 -3 -41 -8 -55 -12 -14 -3 -32 -7 -40 -8 -8
-1 -24 -5 -35 -9 -11 -3 -32 -8 -46 -11 -31 -5 -264 -74 -299 -89 -14 -5 -29
-11 -35 -12 -10 -1 -33 -10 -108 -43 -51 -23 -81 -34 -86 -32 -2 1 -7 -2 -10
-7 -3 -5 -24 -17 -46 -28 -22 -10 -64 -33 -93 -51 -29 -19 -55 -34 -58 -34 -2
0 -10 -5 -17 -10 -7 -6 -43 -34 -82 -62 -156 -115 -339 -326 -431 -498 -40
-74 -95 -225 -110 -300 -10 -51 -17 -113 -18 -167 0 -35 -5 -63 -9 -63 -5 0
-5 -5 -2 -11 4 -5 9 -43 11 -82 2 -40 5 -81 7 -92 14 -88 21 -121 28 -130 4
-6 10 -22 12 -35 6 -37 14 -56 69 -168 29 -56 55 -102 60 -102 4 0 8 -5 8 -11
0 -5 24 -40 53 -77 118 -147 271 -263 492 -371 71 -35 223 -99 250 -106 6 -1
17 -5 25 -9 14 -6 139 -43 170 -51 8 -2 16 -4 18 -5 4 -4 8 -5 117 -27 143
-28 155 -30 215 -37 123 -14 203 -19 282 -20 49 -1 88 -4 88 -8 0 -4 14 -3 30
2 19 5 30 5 30 -1 0 -6 4 -7 10 -4 5 3 63 8 127 10 112 4 146 7 253 21 49 7
71 10 140 19 25 3 52 8 60 11 8 4 28 8 43 10 15 2 54 10 85 18 31 8 68 17 82
20 14 3 57 14 95 26 39 12 77 23 85 25 8 1 58 19 110 39 52 21 103 39 113 41
49 11 367 179 470 248 174 117 340 286 453 459 38 58 125 218 130 238 0 3 6
17 12 32 17 41 60 189 66 228 3 19 8 49 11 65 15 80 17 110 19 235 1 74 -2
155 -7 180 -4 25 -10 61 -12 80 -13 109 -65 261 -131 390 -40 76 -45 85 -101
167 -24 34 -43 64 -43 67 0 3 -15 21 -32 40 -18 18 -49 51 -68 72 -45 49 -159
150 -290 258 -13 10 -59 46 -104 80 -45 33 -83 63 -86 67 -3 3 -14 12 -26 20
-94 64 -285 253 -340 336 -65 98 -88 202 -68 308 11 63 83 196 126 236 10 9
18 20 18 24 0 10 174 182 265 261 97 86 268 260 307 314 18 25 36 47 40 48 5
2 8 10 8 18 0 8 3 14 8 14 4 0 12 10 18 23 6 12 27 51 46 87 19 36 44 90 57
120 12 30 26 64 31 75 11 23 46 162 54 215 21 127 26 327 12 460 -5 41 -9 85
-9 98 -1 12 -4 22 -8 22 -4 0 -6 8 -5 17 5 32 -68 257 -91 281 -7 7 -13 19
-13 25 0 7 -12 30 -26 51 l-26 38 23 22 c13 12 38 33 55 46 79 63 240 195 244
200 3 3 66 55 140 115 74 60 165 134 201 165 36 30 83 69 104 85 20 17 47 38
59 49 11 10 37 30 56 45 19 14 40 31 45 37 6 6 46 39 90 74 44 35 85 70 92 78
6 8 15 12 20 9 5 -3 8 -77 7 -164 -1 -180 -1 -176 -12 -169 -5 3 -27 -4 -49
-15 -75 -37 -70 75 -69 -1454 1 -1315 2 -1371 20 -1405 49 -94 106 -123 236
-124 59 0 104 5 120 13 56 29 93 66 114 111 l22 48 -1 1368 c0 1064 -3 1374
-13 1391 -20 35 -41 52 -80 62 l-37 10 0 270 c0 301 -8 268 75 331 18 14 42
33 53 43 11 9 23 17 26 17 3 0 24 16 46 35 22 19 45 39 50 43 6 4 38 29 73 55
34 27 60 53 56 58 -4 7 -10 7 -18 0 -7 -6 -17 -6 -26 -1 -8 5 -21 5 -31 -1
-11 -5 -20 -5 -24 0 -3 6 -17 6 -35 1 -17 -5 -30 -6 -30 -2 0 6 -165 7 -180 1
-3 -1 -9 0 -15 1 -12 3 -126 2 -140 0 -5 -1 -14 -1 -20 0 -12 3 -126 2 -140 0
-5 -1 -14 -1 -20 0 -11 2 -126 3 -137 0 -21 -4 -89 -2 -94 3 -3 3 -17 2 -30
-3 -14 -6 -26 -6 -29 0 -3 6 -15 6 -30 0 -15 -6 -25 -6 -25 0 0 5 -12 5 -30 0
-16 -5 -30 -5 -30 -1 0 7 -86 5 -107 -3 -7 -3 -15 -1 -18 4 -3 6 -15 6 -30 0
-15 -6 -25 -6 -25 0 0 5 -12 5 -30 0 -16 -5 -30 -6 -30 -2 0 4 -38 7 -85 7
-47 0 -85 -3 -85 -7 0 -4 -13 -3 -30 2 -18 5 -30 5 -30 0 0 -6 -10 -6 -24 0
-13 5 -27 6 -30 3 -3 -4 -22 -6 -41 -6 -19 0 -38 2 -41 6 -3 3 -17 2 -30 -3
-14 -6 -24 -6 -24 0 0 5 -12 5 -30 0 -16 -5 -30 -6 -30 -2 0 4 -38 7 -85 7
-47 0 -85 -3 -85 -7 0 -4 -13 -3 -30 2 -18 5 -30 5 -30 0 0 -6 -10 -6 -24 0
-13 5 -27 6 -30 3 -6 -6 -18 -6 -108 0 -21 1 -38 -1 -38 -5 0 -3 -13 -3 -30 2
-18 5 -30 5 -30 0 0 -6 -10 -6 -25 0 -15 6 -27 6 -30 0 -3 -6 -15 -6 -30 0
-15 6 -27 6 -30 0 -4 -6 -13 -7 -24 -1 -10 6 -23 6 -31 1 -8 -5 -21 -5 -30 0
-9 5 -23 4 -32 -1 -10 -6 -19 -6 -23 0 -3 7 -15 7 -29 1 -13 -5 -26 -7 -28 -5
-8 8 -108 11 -108 4 0 -4 -13 -4 -30 1 -18 5 -30 5 -30 0 0 -6 -10 -6 -25 0
-15 6 -27 6 -30 0 -3 -6 -15 -6 -30 0 -15 6 -27 6 -30 0 -4 -6 -13 -7 -24 -1
-10 6 -23 6 -31 1 -8 -5 -21 -5 -30 0 -9 5 -23 4 -32 -1 -10 -6 -19 -6 -23 0
-3 7 -15 7 -29 1 -13 -5 -26 -7 -28 -5 -8 8 -108 11 -108 4 0 -4 -12 -4 -28 0
-15 5 -37 4 -50 0 -12 -5 -22 -4 -22 1 0 5 -13 5 -30 0 -16 -5 -30 -6 -30 -2
0 6 -175 7 -190 1 -3 -1 -9 0 -15 1 -12 3 -126 2 -140 0 -5 -1 -14 -1 -20 0
-12 3 -126 2 -140 0 -5 -1 -14 -1 -20 0 -12 3 -126 2 -140 0 -5 -1 -14 -1 -20
0 -23 5 -136 3 -141 -3 -4 -3 -14 -2 -23 2 -9 5 -26 5 -38 0z m882 -932 c193
-49 291 -104 435 -247 161 -160 264 -317 391 -595 9 -20 50 -142 53 -160 1 -5
10 -35 19 -65 9 -30 18 -66 20 -80 3 -14 10 -43 15 -65 6 -22 13 -58 17 -80 3
-23 8 -52 10 -65 23 -116 33 -343 20 -464 -24 -243 -113 -438 -270 -592 -40
-39 -85 -78 -101 -87 -178 -94 -252 -115 -438 -121 -196 -6 -391 59 -533 177
-96 79 -283 288 -283 316 0 5 -4 11 -8 13 -13 5 -87 129 -129 218 -64 136
-148 399 -157 496 -2 17 -6 36 -9 41 -2 4 -8 35 -12 68 -4 33 -9 76 -12 95 -7
59 -7 352 0 406 9 60 14 90 21 112 3 9 7 28 10 42 2 14 14 51 26 82 12 32 21
60 21 63 0 2 15 32 34 66 19 33 35 63 35 66 0 15 120 160 163 197 97 82 230
144 347 161 25 4 46 8 48 10 5 5 245 -2 267 -8z m519 -4140 c15 -10 35 -25 44
-32 17 -14 171 -126 212 -155 25 -17 34 -24 115 -86 33 -25 62 -49 65 -53 3
-3 21 -18 40 -32 74 -56 162 -139 198 -188 15 -20 35 -45 46 -56 10 -11 30
-36 45 -55 14 -19 34 -44 43 -54 29 -31 74 -125 102 -211 26 -79 29 -91 46
-170 8 -37 6 -270 -3 -305 -2 -8 -9 -42 -16 -75 -7 -33 -20 -72 -27 -87 -8
-15 -14 -30 -14 -33 2 -14 -66 -135 -105 -185 -97 -125 -275 -248 -460 -315
-27 -10 -56 -23 -62 -28 -7 -5 -13 -7 -13 -3 0 3 -17 -1 -37 -9 -50 -19 -147
-43 -202 -50 -23 -3 -46 -7 -50 -9 -18 -11 -164 -20 -331 -21 -180 0 -252 5
-375 27 -33 5 -73 12 -90 15 -41 7 -60 11 -60 13 0 1 -9 3 -20 5 -11 2 -38 9
-60 15 -22 6 -48 12 -58 15 -9 2 -22 7 -27 10 -5 3 -19 8 -30 10 -62 12 -380
157 -388 177 -2 4 -8 8 -14 8 -32 0 -278 227 -278 258 0 6 -3 12 -7 12 -7 0
-67 87 -69 100 0 3 -14 34 -31 70 -57 121 -77 225 -77 395 -1 169 11 230 72
380 75 185 276 385 483 483 88 41 243 102 261 102 8 0 18 3 22 7 5 6 46 18
156 48 37 10 159 34 200 40 25 3 59 9 75 11 47 9 85 13 155 20 36 3 66 7 68 9
1 1 98 2 215 1 188 -1 216 -3 241 -19z"/>
</g>
</svg>
